<?xml version="1.0" encoding="utf-8"?>
<!-- Generator: Adobe Illustrator 19.2.1, SVG Export Plug-In . SVG Version: 6.00 Build 0)  -->
<!DOCTYPE svg PUBLIC "-//W3C//DTD SVG 1.1//EN" "http://www.w3.org/Graphics/SVG/1.1/DTD/svg11.dtd">
<svg version="1.1" id="Layer_1" xmlns="http://www.w3.org/2000/svg" xmlns:xlink="http://www.w3.org/1999/xlink" x="0px" y="0px"
	 viewBox="0 0 450 450" enable-background="new 0 0 450 450" xml:space="preserve">
<g>
	<g>
		<path d="M225,0C100.7,0,0,100.7,0,225s100.7,225,225,225s225-100.7,225-225S349.3,0,225,0z M375,205c-8.2,0-13.5,9.2-21.1,24.5
			c-7.9,15.8-17.8,35.5-39,35.5s-31-19.7-39-35.5c-7.6-15.2-12.8-24.5-21.1-24.5c-8.2,0-13.4,9.2-21,24.5
			C226,245.3,216.2,265,195,265c-21.2,0-31-19.7-38.9-35.5c-7.6-15.2-12.8-24.5-21.1-24.5c-8.2,0-13.4,9.2-21,24.5
			C106,245.3,96.2,265,75,265c-5.5,0-10-4.5-10-10c0-5.5,4.5-10,10-10c8.2,0,13.4-9.2,21-24.5C104,204.7,113.8,185,135,185
			c21.2,0,31,19.7,38.9,35.5c7.6,15.2,12.8,24.5,21.1,24.5c8.2,0,13.4-9.2,21-24.5c7.9-15.8,17.8-35.5,38.9-35.5
			c21.2,0,31,19.7,39,35.5c7.6,15.2,12.8,24.5,21.1,24.5c8.2,0,13.5-9.2,21.1-24.5c7.9-15.8,17.8-35.5,39-35.5c5.5,0,10,4.5,10,10
			C385,200.5,380.5,205,375,205z"/>
	</g>
</g>
</svg>
